<svg xmlns:svg="http://www.w3.org/2000/svg" 
  xmlns="http://www.w3.org/2000/svg" version="1.1" x="0px" y="0px" viewBox="3 0 100 100">
  <g transform="translate(0,-952.36218)">
    <path style="text-indent:0;text-transform:none;direction:ltr;block-progression:tb;baseline-shift:baseline;enable-background:accumulate;" d="m 8.0106198,962.36222 c -1.1046,0 -2,0.89543 -2,2 0,1.10457 0.8954,2 2,2 l 10.3750002,0 10.5312,49.74998 c 0.2555,1.2291 1.0765,2.263 2.0938,2.25 l 49.999995,0 c 1.0566,0.015 2.0285,-0.9432 2.0285,-2 0,-1.0567 -0.9719,-2.0149 -2.0285,-2 l -48.374995,0 -1.6875,-8 54.062495,0 c 0.8955,-0.01 1.7416,-0.6887 1.9375,-1.5625 l 7,-29.99997 c 0.2601,-1.16072 -0.748,-2.429 -1.9375,-2.4375 l -68.249995,0 -1.7812,-8.43751 c -0.1982,-0.88398 -1.0629,-1.57023 -1.9688,-1.5625 z m 16.5938002,14.00001 17.7187,0 1.8437,11 -17.2187,0 z m 21.75,0 21.3124,0 -1.8437,11 -17.625,0 z m 25.3437,0 17.812495,0 -2.5625,11 -17.093695,0 z m -43.9063,15 17.0313,0 1.8437,10.99997 -16.5624,0 z m 21.0938,0 16.25,0 -1.8125,10.99997 -12.625,0 z m 20.3125,0 16.812495,0 -2.5938,10.99997 -16.062395,0 z m -28.1875,32.99997 c -4.9468,0 -9,4.0531 -9,9 0,4.9469 4.0532,9 9,9 4.9469,0 9,-4.0531 9,-9 0,-4.9468 -4.0531,-9 -9,-9 z m 30,0 c -4.9468,0 -9,4.0531 -9,9 0,4.9469 4.0532,9 9,9 4.9469,0 8.999995,-4.0531 8.999995,-9 0,-4.9468 -4.053095,-9 -8.999995,-9 z m -30,4 c 2.7851,0 5,2.2149 5,5 0,2.7852 -2.2149,5 -5,5 -2.785,0 -5,-2.2149 -5,-5 0,-2.785 2.215,-5 5,-5 z m 30,0 c 2.7851,0 5,2.2149 5,5 0,2.7852 -2.2149,5 -5,5 -2.785,0 -5,-2.2149 -5,-5 0,-2.785 2.215,-5 5,-5 z" fill="#17b489" fill-opacity="1" stroke="none" marker="none" visibility="visible" display="inline" overflow="visible"/>
  </g>
</svg>
