<svg xmlns="http://www.w3.org/2000/svg" width="137.289" height="22.0974" viewBox="0 0 137.289 22.0974"><defs><style>.a{fill:#9b9b9b;}.b{fill:#aaa;}.c{fill:#4ce0aa;}.d{fill:#17b489;}.e{fill:#d3cfcf;}.f{fill:#30c496;}.g{fill:#232c3e;}.h{fill:#e1dcdc;}</style></defs><title>Vector Smart Object3</title><path class="a" d="M2253.58,581.6853H2136.3774l-17.2653,3.3788c-.1519.0319-.1519.1043,0,.1362l17.2653,3.3779H2253.58l2.7068-2.0189v-2.8551Z" transform="translate(-2118.9981 -566.4809)"/><polygon class="b" points="17.379 0 0.078 10.242 17.379 20.484 17.379 0"/><polygon class="c" points="128.048 6 14.673 6 17.379 0 130.754 0 128.048 6"/><polygon class="d" points="128.048 14.485 14.673 14.485 17.379 20.484 130.754 20.484 128.048 14.485"/><polygon class="e" points="134.582 0 130.754 0 128.048 6 128.048 14.485 130.754 20.484 134.582 20.484 137.289 14.485 137.289 6 134.582 0"/><rect class="f" x="14.6726" y="5.9998" width="113.3749" height="8.4849"/><ellipse class="g" cx="132.9707" cy="10.2422" rx="1.2187" ry="2.5988"/><polygon class="e" points="0.078 10.242 14.673 14.485 14.673 6 0.078 10.242"/><polygon class="h" points="0.078 10.242 17.379 0 14.673 6 0.078 10.242"/><path class="g" d="M2122.0781,576.7245a10.23,10.23,0,0,0,.108,1.4972.2789.2789,0,0,1-.42.2773l-2.6537-1.5722a.2367.2367,0,0,1,0-.4047l2.6537-1.5722a.2789.2789,0,0,1,.42.2773A10.2316,10.2316,0,0,0,2122.0781,576.7245Z" transform="translate(-2118.9981 -566.4809)"/></svg>