<svg id="Layer_1" xmlns="http://www.w3.org/2000/svg" viewBox="0 0 650 650"><style>.st1{fill:#15201f}.st2{fill:#bbbcbc}.st3{fill:#95919c}.st4{fill:#19aebe}.st6{fill:#14a3aa}.st10{fill:#f9a04f}.st11{fill:#eb7526}.st12{fill:#f9a04b}.st13{fill:#c35c28}.st14{fill:#ba2928}</style><linearGradient id="SVGID_1_" gradientUnits="userSpaceOnUse" x1="321.526" y1="587" x2="321.526" y2="63"><stop offset="0" stop-color="#fff"/><stop offset=".091" stop-color="#f4fcfa"/><stop offset=".249" stop-color="#d7f2eb"/><stop offset=".457" stop-color="#a8e4d4"/><stop offset=".707" stop-color="#67cfb4"/><stop offset=".988" stop-color="#15b58b"/><stop offset="1" stop-color="#11b489"/></linearGradient><circle cx="321.5" cy="325" r="262" opacity=".5" fill="url(#SVGID_1_)"/><path class="st1" d="M522.9 390.9c0 23.7-19.2 43-43 43-23.7 0-43-19.2-43-43 0-23.7 19.2-43 43-43 23.7 0 43 19.3 43 43z"/><path class="st2" d="M507 390.9c0 15-12.2 27.1-27.1 27.1-15 0-27.1-12.2-27.1-27.1 0-15 12.1-27.1 27.1-27.1 15 0 27.1 12.1 27.1 27.1z"/><path class="st3" d="M483.9 373.2c0 2.2-1.8 4-4 4s-4-1.8-4-4 1.8-4 4-4 4 1.8 4 4zM483.9 408.6c0 2.2-1.8 4-4 4s-4-1.8-4-4 1.8-4 4-4 4 1.8 4 4zM497.6 394.9c-2.2 0-4-1.8-4-4s1.8-4 4-4 4 1.8 4 4-1.8 4-4 4zM462.2 394.9c-2.2 0-4-1.8-4-4s1.8-4 4-4 4 1.8 4 4-1.8 4-4 4z"/><path class="st4" d="M493.1 208.6H401.4l.1 32.5v141H434s5.4-30.3 45.9-30.3 48.2 41.2 48.2 41.2h67.7v-75.5L493.1 208.6z"/><path class="st1" d="M411.9 221.8v48.1h72.7l4.7 6H546l-50.4-54.1z"/><path d="M454.5 293.6c0 2.8-2.2 5-5 5h-19.1c-2.8 0-5-2.2-5-5s2.2-5 5-5h19.1c2.7 0 5 2.2 5 5z" fill="#151a2a"/><path class="st6" d="M603.7 373.7c0 3.7-3 6.7-6.7 6.7h-29.2c-3.7 0-6.7-3-6.7-6.7v-15.5c0-3.7 3-6.7 6.7-6.7H597c3.7 0 6.7 3 6.7 6.7v15.5z"/><path d="M593.8 338.7v-12.6c0-3.7-3-6.7-6.7-6.7h-29.2c-3.7 0-6.7 3-6.7 6.7v12.6c6.9-1.2 14-1.9 21.3-1.9 7.3.1 14.4.8 21.3 1.9z" fill="#f1e2eb"/><path d="M557.8 348.4H587c3.7 0 6.7-3 6.7-6.7v-2.9c-6.9-1.2-14-1.9-21.3-1.9-7.4 0-14.5.7-21.3 1.9v2.9c0 3.6 3 6.7 6.7 6.7z" fill="#e7a23d"/><path d="M486.4 238.8c0 7.4-6 13.4-13.4 13.4h-39c-7.4 0-13.4-6-13.4-13.4s6-13.4 13.4-13.4h39c7.4-.1 13.4 5.9 13.4 13.4z" fill="#554b4f"/><path class="st4" d="M596.3 360c0 2.2-1.8 4-4 4h-46.7c-2.2 0-4-1.8-4-4s1.8-4 4-4h46.7c2.2 0 4 1.8 4 4z"/><path class="st6" d="M531.3 341.1c0 1.8-1.5 3.3-3.3 3.3H412.3c-1.8 0-3.3-1.5-3.3-3.3 0-1.8 1.5-3.3 3.3-3.3H528c1.9-.1 3.3 1.4 3.3 3.3z"/><g><path class="st1" d="M203.5 390.9c0 23.7-19.2 43-43 43-23.7 0-43-19.2-43-43 0-23.7 19.2-43 43-43s43 19.3 43 43z"/><path class="st2" d="M187.7 390.9c0 15-12.2 27.1-27.1 27.1-15 0-27.1-12.2-27.1-27.1 0-15 12.2-27.1 27.1-27.1 15 0 27.1 12.1 27.1 27.1z"/><path class="st3" d="M164.6 373.2c0 2.2-1.8 4-4 4s-4-1.8-4-4 1.8-4 4-4 4 1.8 4 4zM164.6 408.6c0 2.2-1.8 4-4 4s-4-1.8-4-4 1.8-4 4-4 4 1.8 4 4z"/><g><path class="st3" d="M178.3 394.9c-2.2 0-4-1.8-4-4s1.8-4 4-4 4 1.8 4 4-1.8 4-4 4zM142.9 394.9c-2.2 0-4-1.8-4-4s1.8-4 4-4 4 1.8 4 4-1.8 4-4 4z"/></g></g><path class="st6" d="M397.7 330.2H85.5v50.6h5.9c-.7 3.5-1.3 7-1.5 10.7h19.9c2.1-26.7 24.5-47.9 51.7-47.9 27.3 0 49.7 21.1 51.7 47.9h19.9c-.2-3.4-.7-6.7-1.3-10h165.8v-51.3z"/><g><path class="st6" d="M397.7 164.7h-26.1C359.8 194.9 312 291 175.1 325.4h222.7V164.7z"/><path class="st4" d="M371.6 164.7h-292v160.7h95.5C312 291 359.8 194.9 371.6 164.7z"/></g><g><path class="st10" d="M177.8 466.6h92l-92-68.5z"/><path class="st11" d="M305.3 362.2H177.8v35.9l92 68.5h35.5z"/><path class="st12" d="M175 358.5h133.1V396H175z"/><path class="st13" d="M184.3 464h9.4v-3.2h-1.9v1.3h-7.5v-1.3h-1.9v3.2h1.2zM185.9 460.8h4.2v-6.4h1.9l-4-4.2-4 4.2h1.9zM208 454.3v-3.4h-2l-.5 2 .8.3-1.2 3.3.7-3.1-.9-.1.5-2.3h-3.8v3.4c0 2 1.2 3.6 2.7 3.9v5.2h-1.6c-.2 0-.3.1-.3.3 0 .2.1.3.3.3h4.1c.2 0 .3-.1.3-.3 0-.2-.1-.3-.3-.3h-1.6v-5.2c1.7-.4 2.8-2 2.8-4zM223.1 451.8c-.3-.1-.6-.1-.9-.1v-.3c0-.3-.2-.5-.5-.5s-.5.2-.5.5v.3c-5.3.4-5.6 6-5.6 6h5.5v4.8c0 .1-.1.4-.5.4-.1 0-.2 0-.3-.1-.2-.2-.3-.6-.3-.7 0-.3-.2-.6-.5-.6s-.6.2-.6.5c0 .2.1 1 .6 1.5.3.3.7.5 1.1.5 1.1 0 1.5-.9 1.6-1.4V457.7h5.6s-.3-5-4.7-5.9zm-3.7 1.3c-.1.1-.3.2-.4.3l-.4.4-.2.2-.2.2c-.1.2-.2.3-.3.5-.1.1-.1.2-.2.2-.1.1-.1.2-.1.2 0 .1-.1.2-.1.2 0 .1-.1.2-.1.2-.1.2-.1.3-.2.5 0 .1-.1.3-.1.4 0 .1-.1.2-.1.3 0 .2-.1.3-.1.3v-.3-.3c0-.1 0-.3.1-.4 0-.1.1-.3.1-.5 0-.1.1-.2.1-.3 0-.1.1-.2.1-.3 0-.1.1-.2.1-.3 0 0 0-.1.1-.1l.1-.1c.1-.2.2-.3.4-.5.1-.1.1-.2.2-.2.1-.1.1-.2.2-.2.1-.1.3-.3.5-.4l.9-.6c.3-.1.5-.2.7-.3.2-.1.3-.1.3-.1s-.4.2-.9.5l-.5.5zm1.7-.6c0 .1-.1.1-.1.2s-.1.2-.1.3c0 .1-.1.2-.1.4-.1.1-.1.3-.1.4-.1.1-.1.3-.1.4 0 .2-.1.3-.1.5s-.1.3-.1.5-.1.3-.1.4c0 .1 0 .3-.1.4 0 .1 0 .3-.1.4V456v-.4c0-.2 0-.3.1-.5 0-.2.1-.3.1-.5s.1-.3.1-.5c.1-.2.1-.3.2-.4 0-.1.1-.1.1-.2s.1-.1.1-.2c.1-.1.1-.2.2-.3-.2-.2 0-.4.1-.5 0-.1.1-.2.1-.2s-.1.1-.1.2zm2.2 4.2v0c-.1-.1-.1-.2-.1-.3 0-.1 0-.2-.1-.4 0-.1-.1-.3-.1-.4 0-.1-.1-.3-.1-.4 0-.2-.1-.3-.1-.5s-.1-.3-.1-.5c0-.1-.1-.3-.1-.4 0-.1-.1-.3-.1-.4 0-.1-.1-.2-.1-.4 0-.1-.1-.2-.1-.3 0-.1-.1-.2-.1-.2-.1-.1-.1-.2-.1-.2s.1.1.1.2c.1.1.2.3.3.5.1.1.1.2.2.3 0 .1.1.1.1.2s.1.1.1.2c.1.1.1.3.2.4 0 .2.1.3.1.5s.1.3.1.5.1.3.1.5v.8c-.1.1-.1.2-.1.3zm3-.2c0-.1-.1-.2-.1-.4-.1-.1-.1-.3-.2-.5 0-.1-.1-.2-.1-.2 0-.1-.1-.2-.1-.2 0-.1-.1-.2-.1-.2 0-.1-.1-.2-.2-.2-.1-.2-.2-.3-.3-.5-.1-.1-.1-.2-.2-.2l-.2-.2-.4-.4c-.1-.1-.3-.2-.4-.3-.1-.1-.3-.2-.4-.3-.5-.3-.9-.5-.9-.5s.1 0 .3.1c.2.1.4.1.7.3.3.1.6.3.9.6.2.1.3.2.4.4l.2.2c.1.1.1.2.2.2.1.2.2.3.4.5l.1.1s0 .1.1.1c0 .1.1.2.1.3 0 .1.1.2.1.3 0 .1.1.2.1.3.1.2.1.3.1.5-.1 0-.1.1-.1.2.1.1.1.2.1.3v.3s0-.1-.1-.3v-.3z"/><path class="st14" d="M190.4 358.5h21.1V396h-21.1zM271.5 358.5h21.1v37.6h-21.1z"/><g><path class="st13" d="M272.1 405.9V420h1.5v-18.8h-1.5zM281.3 401.2h.9V420h-.9zM283.7 401.2h3.9V420h-3.9zM293.8 401.2h1.3V420h-1.3zM291.1 401.2h.8V420h-.8zM296.1 401.2h1.7V420h-1.7zM278 401.2h1.9V420H278zM274.5 401.2h.9V420h-.9zM276 401.2h.8V420h-.8zM289.1 401.2h.8V420h-.8z"/></g></g><g><path class="st10" d="M309 466.6h92.1L309 398.1z"/><path class="st11" d="M436.5 362.2H309v35.9l92.1 68.5h35.4z"/><path class="st12" d="M306.2 358.5h133.1V396H306.2z"/><path class="st13" d="M315.5 464h9.4v-3.2H323v1.3h-7.5v-1.3h-1.9v3.2h1.2zM317.1 460.8h4.2v-6.4h1.9l-4-4.2-3.9 4.2h1.8zM339.3 454.3v-3.4h-2l-.5 2 .8.3-1.2 3.3.7-3.1-.9-.1.5-2.3h-3.8v3.4c0 2 1.2 3.6 2.7 3.9v5.2H334c-.2 0-.3.1-.3.3 0 .2.1.3.3.3h4.1c.2 0 .3-.1.3-.3 0-.2-.1-.3-.3-.3h-1.6v-5.2c1.6-.4 2.8-2 2.8-4zM354.3 451.8c-.3-.1-.6-.1-.9-.1v-.3c0-.3-.2-.5-.5-.5s-.5.2-.5.5v.3c-5.3.4-5.6 6-5.6 6h5.5v4.8c0 .1-.1.4-.5.4-.1 0-.2 0-.3-.1-.2-.2-.3-.6-.3-.7 0-.3-.2-.6-.5-.6s-.6.2-.6.5c0 .2.1 1 .6 1.5.3.3.7.5 1.1.5 1.1 0 1.5-.9 1.6-1.4V457.7h5.6s-.3-5-4.7-5.9zm-3.7 1.3c-.1.1-.3.2-.4.3l-.4.4-.2.2-.2.2c-.1.2-.2.3-.3.5-.1.1-.1.2-.2.2-.1.1-.1.2-.1.2 0 .1-.1.2-.1.2 0 .1-.1.2-.1.2-.1.2-.1.3-.2.5 0 .1-.1.3-.1.4 0 .1-.1.2-.1.3 0 .2-.1.3-.1.3v-.3-.3c0-.1 0-.3.1-.4 0-.1.1-.3.1-.5 0-.1.1-.2.1-.3 0-.1.1-.2.1-.3 0-.1.1-.2.1-.3 0 0 0-.1.1-.1l.1-.1c.1-.2.2-.3.4-.5.1-.1.1-.2.2-.2.1-.1.1-.2.2-.2.1-.1.3-.3.5-.4l.9-.6c.3-.1.5-.2.7-.3.2-.1.3-.1.3-.1s-.4.2-.9.5l-.5.5zm1.7-.6c0 .1-.1.1-.1.2s-.1.2-.1.3c0 .1-.1.2-.1.4-.1.1-.1.3-.1.4-.1.1-.1.3-.1.4 0 .2-.1.3-.1.5s-.1.3-.1.5-.1.3-.1.4c0 .1 0 .3-.1.4 0 .1 0 .3-.1.4V456v-.4c0-.2 0-.3.1-.5 0-.2.1-.3.1-.5s.1-.3.1-.5c.1-.2.1-.3.2-.4 0-.1.1-.1.1-.2s.1-.1.1-.2c.1-.1.1-.2.2-.3-.1-.2 0-.4.1-.5 0-.1.1-.2.1-.2s0 .1-.1.2zm2.2 4.2v0c-.1-.1-.1-.2-.1-.3 0-.1 0-.2-.1-.4 0-.1-.1-.3-.1-.4 0-.1-.1-.3-.1-.4 0-.2-.1-.3-.1-.5s-.1-.3-.1-.5c0-.1-.1-.3-.1-.4 0-.1-.1-.3-.1-.4 0-.1-.1-.2-.1-.4 0-.1-.1-.2-.1-.3 0-.1-.1-.2-.1-.2-.1-.1-.1-.2-.1-.2s.1.1.1.2c.1.1.2.3.3.5.1.1.1.2.2.3 0 .1.1.1.1.2s.1.1.1.2c.1.1.1.3.2.4 0 .2.1.3.1.5s.1.3.1.5.1.3.1.5v.8c-.1.1-.1.2-.1.3zm3-.2c0-.1-.1-.2-.1-.4-.1-.1-.1-.3-.2-.5 0-.1-.1-.2-.1-.2 0-.1-.1-.2-.1-.2 0-.1-.1-.2-.1-.2 0-.1-.1-.2-.2-.2-.1-.2-.2-.3-.3-.5-.1-.1-.1-.2-.2-.2l-.2-.2-.4-.4c-.1-.1-.3-.2-.4-.3-.1-.1-.3-.2-.4-.3-.5-.3-.9-.5-.9-.5s.1 0 .3.1c.2.1.4.1.7.3.3.1.6.3.9.6.2.1.3.2.4.4l.2.2c.1.1.1.2.2.2.1.2.2.3.4.5l.1.1s0 .1.1.1c0 .1.1.2.1.3 0 .1.1.2.1.3 0 .1.1.2.1.3.1.2.1.3.1.5-.1 0 0 .1-.1.2.1.1.1.2.1.3v.3s0-.1-.1-.3v-.3z"/><path class="st14" d="M321.7 358.5h21.1V396h-21.1zM402.7 358.5h21.1v37.6h-21.1z"/><g><path class="st13" d="M403.3 405.9V420h1.5v-18.8h-1.5zM412.5 401.2h.9V420h-.9zM414.9 401.2h3.9V420h-3.9zM425 401.2h1.3V420H425zM422.3 401.2h.8V420h-.8zM427.3 401.2h1.7V420h-1.7zM409.2 401.2h1.9V420h-1.9zM405.7 401.2h.9V420h-.9zM407.2 401.2h.8V420h-.8zM420.3 401.2h.8V420h-.8z"/></g></g><g><path class="st10" d="M215.1 358.3h92.1l-92.1-68.5z"/><path class="st11" d="M342.6 253.9H215.1v35.9l92.1 68.5h35.4z"/><path class="st12" d="M212.3 250.2h133.1v37.5H212.3z"/><path class="st13" d="M221.6 355.7h9.4v-3.2h-1.9v1.3h-7.5v-1.3h-1.9v3.2h1.2zM223.3 352.5h4.2v-6.4h1.8l-3.9-4.2-4 4.2h1.9zM245.4 346v-3.4h-2l-.5 2 .8.3-1.2 3.3.7-3.1-.9-.1.5-2.3H239v3.4c0 2 1.2 3.6 2.7 3.9v5.2h-1.6c-.2 0-.3.1-.3.3 0 .2.1.3.3.3h4.1c.2 0 .3-.1.3-.3 0-.2-.1-.3-.3-.3h-1.6V350c1.6-.4 2.8-2 2.8-4zM260.5 343.5s-.1 0 0 0c-.3-.1-.6-.1-.9-.1v-.3c0-.3-.2-.5-.5-.5s-.5.2-.5.5v.3c-5.3.4-5.6 6-5.6 6h5.5v4.8c0 .1-.1.4-.5.4-.1 0-.2 0-.3-.1-.2-.2-.3-.6-.3-.7 0-.3-.2-.6-.5-.6s-.6.2-.6.5c0 .2.1 1 .6 1.5.3.3.7.5 1.1.5 1.1 0 1.5-.9 1.6-1.4V349.4h5.6c-.1 0-.4-5-4.7-5.9zm-3.8 1.3c-.1.1-.3.2-.4.3l-.4.4-.2.2-.2.2c-.1.2-.2.3-.3.5-.1.1-.1.2-.2.2-.1.1-.1.2-.1.2 0 .1-.1.2-.1.2 0 .1-.1.2-.1.2-.1.2-.1.3-.2.5 0 .1-.1.3-.1.4 0 .1-.1.2-.1.3 0 .2-.1.3-.1.3v-.3-.3c0-.1 0-.3.1-.4 0-.1.1-.3.1-.5 0-.1.1-.2.1-.3 0-.1.1-.2.1-.3 0-.1.1-.2.1-.3 0 0 0-.1.1-.1l.1-.1c.1-.2.2-.3.4-.5.1-.1.1-.2.2-.2.1-.1.1-.2.2-.2.1-.1.3-.3.5-.4l.9-.6c.3-.1.5-.2.7-.3.2-.1.3-.1.3-.1s-.4.2-.9.5c-.2.3-.4.4-.5.5zm1.7-.6c0 .1-.1.1-.1.2s-.1.2-.1.3c0 .1-.1.2-.1.4-.1.1-.1.3-.1.4-.1.1-.1.3-.1.4 0 .2-.1.3-.1.5s-.1.3-.1.5-.1.3-.1.4c0 .1 0 .3-.1.4 0 .1 0 .3-.1.4V347.7v-.4c0-.2 0-.3.1-.5 0-.2.1-.3.1-.5s.1-.3.1-.5c.1-.2.1-.3.2-.4 0-.1.1-.1.1-.2s.1-.1.1-.2c.1-.1.1-.2.2-.3-.1-.2 0-.4.1-.5 0-.1.1-.2.1-.2s0 .1-.1.2zm2.3 4.2v.3c-.1-.1-.1-.2 0-.3-.1-.1-.1-.2-.1-.3 0-.1 0-.2-.1-.4 0-.1-.1-.3-.1-.4 0-.1-.1-.3-.1-.4 0-.2-.1-.3-.1-.5s-.1-.3-.1-.5c0-.1-.1-.3-.1-.4 0-.1-.1-.3-.1-.4 0-.1-.1-.2-.1-.4 0-.1-.1-.2-.1-.3 0-.1-.1-.2-.1-.2-.1-.1-.1-.2-.1-.2s.1.1.1.2c.1.1.2.3.3.5.1.1.1.2.2.3 0 .1.1.1.1.2s.1.1.1.2c.1.1.1.3.2.4 0 .2.1.3.1.5s.1.3.1.5.1.3.1.5v.8c-.1.1-.1.2-.1.3zm2.9-.2c0-.1-.1-.2-.1-.4-.1-.1-.1-.3-.2-.5 0-.1-.1-.2-.1-.2 0-.1-.1-.2-.1-.2 0-.1-.1-.2-.1-.2 0-.1-.1-.2-.2-.2-.1-.2-.2-.3-.3-.5-.1-.1-.1-.2-.2-.2l-.2-.2-.4-.4c-.1-.1-.3-.2-.4-.3-.1-.1-.3-.2-.4-.3-.5-.3-.9-.5-.9-.5s.1 0 .3.1c.2.1.4.1.7.3.3.1.6.3.9.6.2.1.3.2.4.4l.2.2c.1.1.1.2.2.2.1.2.2.3.4.5l.1.1s0 .1.1.1c0 .1.1.2.1.3 0 .1.1.2.1.3 0 .1.1.2.1.3.1.2.1.3.1.5 0 0 0 .1-.1.2.1.1.1.2.1.3v.3s0-.1-.1-.3c.1 0 0-.1 0-.3z"/><path class="st14" d="M227.8 250.2h21.1v37.5h-21.1zM308.9 250.2H330v37.6h-21.1z"/><g><path class="st13" d="M309.4 297.6v14.1h1.6v-18.8h-1.6zM318.7 292.9h.9v18.8h-.9zM321 292.9h3.9v18.8H321zM331.1 292.9h1.3v18.8h-1.3zM328.5 292.9h.8v18.8h-.8zM333.5 292.9h1.7v18.8h-1.7zM315.3 292.9h1.9v18.8h-1.9zM311.9 292.9h.9v18.8h-.9zM313.3 292.9h.8v18.8h-.8zM326.4 292.9h.8v18.8h-.8z"/></g></g></svg>