<svg id="Layer_1" xmlns="http://www.w3.org/2000/svg" viewBox="0 0 650 650"><style>.st1{fill:#7f8181}.st2{fill:#b0b3b1}.st3{fill:#bdc1c1}.st4{fill:#404f52}.st5{fill:#f0f9f9}.st7{fill:#022640}.st12{fill:#fff}.st15{fill:#db4744}.st16{fill:#e5e5e4}.st17{fill:none}.st18{fill:#f15a56}.st19{fill:#2a9eb9}.st20{fill:#ba2428}.st21{fill:#0f89a8}</style><linearGradient id="SVGID_1_" gradientUnits="userSpaceOnUse" x1="321.526" y1="587" x2="321.526" y2="63"><stop offset="0" stop-color="#fff"/><stop offset=".091" stop-color="#f4fcfa"/><stop offset=".249" stop-color="#d7f2eb"/><stop offset=".457" stop-color="#a8e4d4"/><stop offset=".707" stop-color="#67cfb4"/><stop offset=".988" stop-color="#15b58b"/><stop offset="1" stop-color="#11b489"/></linearGradient><circle cx="321.5" cy="325" r="262" opacity=".5" fill="url(#SVGID_1_)"/><path class="st1" d="M33.9 293.7v107.9c0 12.1 9.8 22 22 22h280.7c12.2 0 22-9.8 22-22V293.7H33.9z"/><path class="st1" d="M336.6 215.8l-280.7-4.7c-8.2 0-15.3 4.5-19.1 11.1-1.8 3.2-2.9 6.9-2.9 10.9v60.6h324.7V237.8c0-12.1-9.8-22-22-22z"/><path class="st2" d="M69.6 289.2H37.8v107.9c0 12.1 9.8 22 22 22h202.6C155.1 390.8 98.9 335.5 69.6 289.2z"/><path class="st3" d="M362.5 397.1V289.2H69.6c29.3 46.3 85.5 101.6 192.8 129.9h78.1c12.1 0 22-9.9 22-22z"/><path class="st2" d="M37.8 233.3v14.8h11c-4.1-10.6-6.6-19.4-8.1-25.7-1.9 3.2-2.9 6.9-2.9 10.9z"/><path class="st3" d="M362.5 233.3c0-12.1-9.8-22-22-22H59.8c-8.2 0-15.3 4.5-19.1 11.1 1.5 6.2 4 15.1 8.1 25.7h313.7v-14.8z"/><path class="st4" d="M37.8 248.1h324.7v41.1H37.8z"/><path class="st5" d="M46.4 306.5h171v23.8h-171zM241 306.5h110.4v23.8H241z"/><path class="st1" d="M196.2 370.2h58.7v19.6h-58.7zM279.3 370.2h31.8v19.6h-31.8z"/><g><path d="M475.4 146.8l-76.1-6.5h-80.7c-13.1 0-23.8 10.7-23.8 23.8v310.8c0 13.1 10.7 23.8 23.8 23.7H484.2c13.1 0 23.8-10.7 23.8-23.8l-8.8-304.3c-.1-13-10.8-23.7-23.8-23.7z" fill="#002a3f"/><path class="st7" d="M367 453.8h73.3v32.3H367zM472.9 159.9c0 6.5-27.6 11.8-61.7 11.8s-61.7-5.3-61.7-11.8c0-6.5 27.6-11.8 61.7-11.8s61.7 5.3 61.7 11.8z"/><path d="M484.2 140.2h-76.1v13.3h39.7c3.1 0 5.6 2.5 5.6 5.6 0 3.1-2.5 5.6-5.6 5.6h-39.7V177h78.1c2.9 0 5.3 2.4 5.3 5.3v260.6c0 2.9-2.4 5.3-5.3 5.3h-78.1v8c6.6 1.1 11.6 6.8 11.6 13.7 0 6.9-5 12.6-11.6 13.7v8.6h76.1c13.1 0 23.8-10.7 23.8-23.8V163.9c0-13-10.7-23.7-23.8-23.7zm-54.1 335.1c-3.1 0-5.5-2.5-5.5-5.6 0-3.1 2.5-5.5 5.5-5.5 3.1 0 5.5 2.5 5.5 5.5 0 3.1-2.5 5.6-5.5 5.6z" fill="#194c59"/><path d="M405.8 483.6c-7.7 0-13.9-6.2-13.9-13.9s6.2-13.9 13.9-13.9c.8 0 1.6.1 2.3.2v-8h-82.4c-2.9 0-5.3-2.4-5.3-5.3V182.1c0-2.9 2.4-5.3 5.3-5.3h82.4v-12.3h-44.3c-3.1 0-5.6-2.5-5.6-5.6 0-3.1 2.5-5.6 5.6-5.6h44.3V140h-80.7c-13.1 0-23.8 10.7-23.8 23.8v304.3c0 13.1 10.7 23.8 23.8 23.7h80.7v-8.6c-.7.3-1.5.4-2.3.4zm-24.2-8.3c-3.1 0-5.5-2.5-5.5-5.6 0-3.1 2.5-5.5 5.5-5.5 3.1 0 5.6 2.5 5.6 5.5-.1 3.1-2.6 5.6-5.6 5.6z" fill="#89b6c1"/><path d="M486.2 176.9H325.7c-2.9 0-5.3 2.4-5.3 5.3v260.7c0 .9.2 1.7.6 2.4l168.6-267c-.9-.9-2.1-1.4-3.4-1.4z" fill="#e8e7e7"/><path d="M489.7 178.2l-168.6 267c.9 1.7 2.6 2.8 4.6 2.8h160.5c2.9 0 5.3-2.4 5.3-5.3V182c0-1.4-.7-2.8-1.8-3.8z" fill="#c6c4c2"/></g><ellipse transform="matrix(1 -.00515 .00515 1 -1.62 2.103)" class="st12" cx="407.1" cy="315.4" rx="60.1" ry="60.1"/><g><path d="M394.2 335.4c-23.5-22.1-25.6-50.3-25-63.4-12 10.6-19.7 26.1-19.7 43.4 0 31.9 25.8 57.7 57.7 57.7 20.1 0 37.9-10.3 48.2-26-19.4 3.8-44.2 4.3-61.2-11.7z" fill="#94d5d7"/><path d="M394.2 335.4c17 15.9 41.8 15.5 61.2 11.7 6-9.1 9.5-20 9.5-31.7 0-31.9-25.8-57.7-57.7-57.7-14.6 0-27.9 5.4-38 14.3-.6 13.1 1.4 41.4 25 63.4z" fill="#a8dde3"/></g><g><path class="st15" d="M447.1 299.3h-60.8c-.6 0-1.1.6-1.1 1.3 0 .7.5 1.3 1.1 1.3h60.8c.6 0 1.1-.6 1.1-1.3 0-.7-.5-1.3-1.1-1.3zM443.3 309.9h-54c-.6 0-1.1.6-1.1 1.3 0 .7.5 1.3 1.1 1.3h54c.6 0 1.1-.6 1.1-1.3 0-.7-.5-1.3-1.1-1.3zM439.2 320.5h-47.6c-.6 0-1.1.6-1.1 1.3 0 .7.5 1.3 1.1 1.3h47.6c.6 0 1.1-.6 1.1-1.3.1-.7-.5-1.3-1.1-1.3z"/><path class="st15" d="M397.4 301.1l-2.2.3 3.1 27.5 2.4.6zM406.6 301.3l-2.3.1 1.7 28.4 2.4-.5zM413.5 300.9v29l2.2-.1.1-28.9zM424.1 300.8l-4.3 29.4 2.5-1 4.1-28zM434 300.7l-7.1 29.7 2.5-.6 6.8-28.3zM443.7 300.3l-9.5 28.6 2.3 1.1 9.3-28.8z"/><g><path class="st15" d="M441.3 327H395l-9.3-30.1c-.1 1.6-1.6 1.9-3 2.1l9.5 30.5c.2.8.9 1.3 1.6 1.3h47.5c.9 0 1.7-.9 1.7-1.9 0-1.1-.7-1.9-1.7-1.9z"/><path class="st4" d="M385.2 295.4c-.5-.5-1.3-.8-2.1-.8h-21.8c-1.7 0-3 1.2-3 2.7 0 1.5 1.3 2.7 3 2.7H383.4c1.4-.2 2.5-1.2 2.6-2.4v-.3c.1-.8-.2-1.5-.8-1.9z"/></g><path class="st15" d="M428.3 349.2h-37.1l4.4-20.6 2.3.7-3.7 17.2h34.1z"/><g><path class="st4" d="M399.8 348.1a6.7 6.7 0 1 1-13.4 0 6.7 6.7 0 0 1 13.4 0z"/><path class="st16" d="M398.1 348.1c0 2.8-2.2 5-5 5s-5-2.2-5-5 2.2-5 5-5 5 2.2 5 5z"/></g><g><path class="st4" d="M434.3 348.1a6.7 6.7 0 1 1-13.4 0 6.7 6.7 0 0 1 13.4 0z"/><path class="st16" d="M432.6 348.1c0 2.8-2.2 5-5 5s-5-2.2-5-5 2.2-5 5-5 5 2.2 5 5z"/></g></g><g><path class="st17" d="M351.3 198.8l.1-.3h-.1v.3zM328.6 223.4c0 .2-.1.4-.1.7 0 .1.1.3.1.4 0-.1.1-.3.1-.4 0-.2-.1-.4-.1-.7zM350.7 220.5l.6-21.7z"/><path transform="matrix(.01578 -.9999 .9999 .01578 211.51 613.861)" class="st17" d="M417.5 199.5h.2v.1h-.2z"/><path class="st17" d="M461.8 200l-4.9-18.9 4.9 18.9z"/><path class="st18" d="M328.6 223.4v-.6-.8l.7-23.6-22.1-.3-.7 23.6c-.1 5.9 4.7 10.8 10.6 10.9h1c5.1.1 9.4-3.4 10.5-8.2 0-.1-.1-.3-.1-.4.1-.1.1-.3.1-.6z"/><path class="st19" d="M351.3 198.8l-22.1-.3-.7 23.6v1.4c0 .2 0 .4.1.7 0 .1-.1.3-.1.4 1 4.8 5.2 8.4 10.3 8.4h1c5.6.1 10.5-4.2 11-9.7-.2-.9-.3-1.8-.3-2.7l.8-21.8z"/><path class="st12" d="M328.5 222.1v0z"/><path class="st18" d="M373.4 199.1l-22.1-.3-.7 21.7c0 .9.1 1.8.3 2.7 1.1 4.6 5.3 8.1 10.3 8.2h1c5.2.1 9.6-3.6 10.6-8.6-.1-.7-.2-1.3-.2-2l.8-21.7z"/><path class="st19" d="M395.5 199.4l-22.1-.3-.7 21.7c0 .7 0 1.4.2 2 .9 5 5.2 8.8 10.4 8.9h1c5.1.1 9.4-3.4 10.6-8.1-.1-.5-.1-1-.1-1.5l.7-22.7z"/><path class="st18" d="M417.6 199.7l-22.1-.3-.7 22.7c0 .5 0 1 .1 1.5.6 5.2 5.1 9.3 10.5 9.4h1c5.2.1 9.6-3.6 10.6-8.6-.1-.7-.2-1.3-.2-2l.8-22.7z"/><path class="st19" d="M439.7 200l-22.1-.3-.7 22.7c0 .7 0 1.4.2 2 .9 5 5.2 8.8 10.4 8.9h1c5.7.1 10.4-4.3 10.8-10-.2-.9-.3-1.8-.3-2.8l.7-20.5z"/><path class="st18" d="M461.8 200.3l-22.1-.3-.7 20.5c0 1 .1 1.9.3 2.8 1.2 4.6 5.3 8 10.2 8.1h1c5.1.1 9.4-3.4 10.6-8.1-.1-.5-.1-1-.1-1.5l.8-21.5z"/><path class="st19" d="M483.9 200.6l-22.1-.3-.7 21.5c0 .5 0 1 .1 1.5.6 5.2 5.1 9.3 10.5 9.4h1c5.2.1 9.6-3.6 10.6-8.6-.1-.7-.2-1.3-.2-2l.8-21.5z"/><path class="st18" d="M483.9 200.6l-.7 21.5c0 .7 0 1.4.2 2 .9 5 5.2 8.8 10.4 8.9h1c5.9.1 10.8-4.6 10.9-10.6l.7-21.5-22.5-.3z"/><g><path class="st17" d="M395.5 199.1l.2-22.3-.2 22.3zM454.1 176.8l2.8 4.3zM483.9 200.3l-12.4-23.5h-.1l12.5 23.6zM461.8 200l-4.9-18.9 4.9 18.9z"/><path transform="matrix(.01214 -.9999 .9999 .01214 213.02 614.609)" class="st17" d="M417.5 199.5h.2v.1h-.2z"/><path class="st17" d="M357.9 176.8l-6.6 21.7 6.6-21.7z"/><path class="st20" d="M339.2 176.8h-16l-16 21.1v.3l22.1.3v-.3z"/><path class="st21" d="M339.2 176.8l-9.9 21.4v.3l22 .3v-.3l6.6-21.7z"/><path class="st20" d="M377.3 176.8h-19.4l-6.6 21.7h.1l-.1.3 22.1.3v-.3z"/><path class="st21" d="M395.7 176.8h-18.4l-3.9 22v.3l22.1.3v-.3z"/><path class="st20" d="M417.5 199.6v-.2l.2-22.6h-22l-.2 22.3v.3l22.1.3v-.1z"/><path class="st21" d="M435.4 176.8h-17.7l-.2 22.6h.1V199.7l22.1.3v-.3z"/><path class="st20" d="M456.9 181.1l-2.8-4.3h-18.7l4.3 22.9v.3l22.1.3v-.3z"/><path class="st21" d="M471.4 176.8h-17.3l7.7 23.2v.3l22.1.3v-.2z"/><path class="st20" d="M488.7 176.8h-17.2l12.4 23.5V200.6l22.4.3v-.3z"/></g></g></svg>